# Blender 3.5.0
# www.blender.org
mtllib Low-Poly-Mill-mill.mtl
o propeller
v -0.075246 -0.473710 -0.174014
v -0.085570 -0.511607 -0.133426
v -0.073380 -0.534724 -0.133093
v 0.062916 -0.793211 -0.115285
v -0.133007 -0.364167 -0.055980
v -0.071627 -0.480574 -0.149056
v -0.061857 -0.499103 -0.133426
v -0.085997 -0.453321 0.019225
v -0.077287 -0.469839 0.133276
v -0.037408 -0.545470 0.134365
v -0.027347 -0.564550 0.020826
v -0.049667 -0.522220 -0.133093
v -0.072903 -0.535630 -0.213525
v -0.155300 -0.379364 -0.295161
v -0.095045 -0.493638 -0.198766
v -0.096729 -0.490444 -0.167252
v -0.173393 -0.345049 -0.169345
v -0.157888 -0.374456 -0.062416
v -0.081881 -0.518602 -0.135884
v -0.054276 -0.570955 0.021219
v -0.077039 -0.527786 -0.135752
v 0.014217 -0.643377 -0.445351
v -0.001929 -0.670231 -0.058159
v -0.049190 -0.523126 -0.213525
v -0.061379 -0.500009 -0.213858
v -0.083699 -0.457679 -0.367777
v 0.014841 -0.702036 -0.164207
v -0.154574 -0.323265 -0.399695
v -0.061824 -0.556642 -0.166299
v -0.071332 -0.481134 -0.198766
v -0.098959 -0.486214 -0.174014
v -0.174134 -0.343646 -0.176065
v -0.070672 -0.539860 -0.206763
v -0.210194 -0.275258 -0.041410
v -0.087402 -0.508132 -0.207220
v -0.095340 -0.493078 -0.149056
v -0.152806 -0.384094 -0.299531
v -0.109710 -0.465825 0.019225
v -0.101000 -0.482343 0.133276
v -0.061121 -0.557973 0.134365
v -0.051060 -0.577054 0.020826
v -0.091356 -0.500633 -0.201224
v -0.063428 -0.553599 -0.148185
v -0.003173 -0.667872 -0.051790
v 0.050110 -0.768924 -0.034305
v 0.015661 -0.703591 -0.170885
v -0.063133 -0.554159 -0.197895
v -0.059514 -0.561023 -0.172937
v -0.001753 -0.670566 -0.290970
v -0.085092 -0.512513 -0.213858
v 0.022468 -0.716501 -0.394215
v -0.009496 -0.655881 -0.445351
v -0.048763 -0.581412 -0.366176
v -0.095291 -0.493171 -0.157337
v -0.106500 -0.471912 0.019793
v -0.107412 -0.470183 -0.367777
v -0.145726 -0.397521 -0.449070
v -0.178287 -0.335768 -0.399695
v -0.063379 -0.553692 -0.156466
v -0.066791 -0.547221 -0.200554
v -0.004194 -0.665936 -0.295474
v -0.150420 -0.331142 -0.176065
v -0.198321 -0.240299 -0.123062
v -0.186480 -0.262754 -0.041410
v -0.046053 -0.586550 -0.362441
v -0.110165 -0.464963 -0.364191
v -0.218272 -0.259938 -0.119685
v -0.207988 -0.279442 -0.048765
v -0.098340 -0.487388 0.126648
v -0.063702 -0.553078 0.127594
v 0.047992 -0.764908 -0.041778
v 0.059115 -0.786002 -0.112114
v -0.039715 -0.541096 -0.148185
v 0.020540 -0.655369 -0.051790
v 0.073823 -0.756421 -0.034305
v 0.086629 -0.780708 -0.115285
v 0.039374 -0.691087 -0.170885
v -0.035800 -0.548519 -0.172937
v -0.039420 -0.541655 -0.197895
v 0.021960 -0.658062 -0.290970
v 0.046181 -0.703998 -0.394215
v 0.018499 -0.708973 -0.392206
v -0.025050 -0.568908 -0.366176
v -0.009264 -0.656321 -0.436621
v -0.146061 -0.396885 -0.440355
v -0.174343 -0.343249 -0.397469
v -0.122013 -0.385017 -0.449070
v -0.084951 -0.512780 -0.157055
v -0.131587 -0.366861 -0.295161
v -0.075153 -0.531363 -0.156787
v -0.079115 -0.523849 -0.193962
v -0.088286 -0.506455 -0.180054
v -0.222034 -0.252803 -0.123062
v -0.070641 -0.539920 -0.180405
v -0.156720 -0.376671 -0.055980
v -0.003425 -0.700118 -0.825690
v 0.008425 -0.661831 -0.563153
v 0.335333 -0.521495 -0.825690
v 0.297047 -0.509645 -0.563153
v 0.156710 -0.182737 -0.825690
v 0.144860 -0.221023 -0.563153
v -0.182048 -0.361360 -0.825690
v -0.143762 -0.373210 -0.563153
v 0.017793 -0.631565 -0.553514
v 0.266780 -0.500277 -0.553514
v 0.135492 -0.251290 -0.553514
v -0.113495 -0.382578 -0.553514
v 0.017793 -0.631565 -0.207696
v 0.266780 -0.500277 -0.207696
v 0.135492 -0.251290 -0.207696
v -0.113495 -0.382578 -0.207696
v -0.049185 -0.504541 -0.207696
v 0.199802 -0.373253 -0.207696
v 0.009066 -0.659762 -0.198247
v 0.294977 -0.509005 -0.198247
v 0.144220 -0.223093 -0.198247
v -0.141692 -0.373850 -0.198247
v -0.067647 -0.514276 -0.043034
v 0.218264 -0.363518 -0.043034
v -0.037319 -0.632236 -0.810126
v -0.025354 -0.618665 -0.653440
v -0.084163 -0.543396 -0.810127
v -0.066206 -0.541189 -0.653440
v -0.018458 -0.622291 -0.812428
v -0.006493 -0.608720 -0.655741
v -0.065302 -0.533451 -0.812428
v -0.047345 -0.531244 -0.655741
v 0.259635 -0.486727 -0.538195
v 0.142637 -0.264840 -0.538195
v 0.259635 -0.486727 -0.223014
v 0.142637 -0.264840 -0.223014
v 0.199802 -0.373253 -0.223014
v 0.010648 -0.618014 -0.538195
v -0.106350 -0.396128 -0.538195
v 0.010648 -0.618014 -0.223014
v -0.106350 -0.396128 -0.223014
v -0.049185 -0.504541 -0.223014
v 0.031343 -0.624420 -0.538195
v 0.253230 -0.507422 -0.538195
v 0.031343 -0.624420 -0.223014
v 0.253230 -0.507422 -0.223014
v 0.121942 -0.258435 -0.538195
v -0.099944 -0.375433 -0.538195
v 0.121942 -0.258435 -0.223014
v -0.099944 -0.375433 -0.223014
v 0.249642 -0.491996 -0.538195
v 0.132644 -0.270110 -0.538195
v 0.249642 -0.491996 -0.223014
v 0.132644 -0.270110 -0.223014
v 0.189809 -0.378522 -0.223014
v 0.020641 -0.612745 -0.538195
v -0.096356 -0.390859 -0.538195
v 0.020641 -0.612745 -0.223014
v -0.096356 -0.390859 -0.223014
v -0.039192 -0.499271 -0.223014
v 0.026074 -0.614426 -0.538195
v 0.247960 -0.497429 -0.538195
v 0.026074 -0.614426 -0.223014
v 0.247960 -0.497429 -0.223014
v 0.127211 -0.268428 -0.538195
v -0.094675 -0.385426 -0.538195
v 0.127211 -0.268428 -0.223014
v -0.094675 -0.385426 -0.223014
vn 0.0059 -0.0113 -0.9999
vn -0.2139 0.4057 -0.8886
vn -0.4454 0.8447 0.2969
vn 0.0588 -0.1115 0.9920
vn 0.2693 -0.5108 0.8164
vn -0.2789 0.5290 0.8015
vn -0.4417 0.8377 -0.3211
vn -0.4603 0.8729 0.1616
vn -0.0059 0.0113 0.9999
vn 0.4582 -0.8690 0.1866
vn 0.4454 -0.8447 -0.2969
vn -0.0706 0.1338 0.9885
vn 0.4417 -0.8377 0.3211
vn 0.2244 -0.4256 -0.8767
vn 0.4167 -0.7902 0.4493
vn 0.2789 -0.5290 -0.8015
vn -0.3195 0.6060 -0.7285
vn 0.3281 -0.6222 -0.7108
vn -0.2693 0.5108 -0.8164
vn -0.4219 0.8001 0.4265
vn 0.8846 0.4664 -0.0000
vn -0.8846 -0.4664 -0.0000
vn -0.4664 0.8846 -0.0000
vn -0.0000 -0.0000 -1.0000
vn -0.8795 -0.4637 0.1073
vn 0.3201 -0.6071 0.7273
vn 0.1843 -0.3496 0.9186
vn 0.3496 0.1843 0.9186
vn -0.1843 0.3496 0.9186
vn -0.3496 -0.1843 0.9186
vn 0.4664 -0.8846 -0.0000
vn -0.0000 -0.0000 1.0000
vn -0.3261 0.6184 0.7150
vn 0.1924 -0.3648 -0.9110
vn 0.8060 0.5498 -0.2192
vn -0.9090 -0.3545 -0.2192
vn 0.9106 0.3508 -0.2186
vn -0.1924 0.3648 -0.9110
vn -0.8039 -0.5532 -0.2186
vn 0.0949 0.0501 0.9942
vn -0.4699 0.8818 -0.0405
vn -0.0949 -0.0501 -0.9942
vn 0.4622 -0.8859 -0.0405
vn 0.4637 -0.8795 0.1073
vn 0.8795 0.4637 0.1073
vn -0.4637 0.8795 0.1073
vt 1.000000 1.000000
vt 0.000000 1.000000
vt 0.200000 0.000000
vt 0.000000 1.000000
vt 0.392141 0.000000
vt 0.000000 1.000000
vt 0.508926 0.000000
vt 0.000000 1.000000
vt 0.143676 1.000000
vt 0.000000 1.000000
vt 0.192141 1.000000
vt 0.000000 1.000000
vt 0.200000 1.000000
vt 0.000000 1.000000
vt 0.248466 1.000000
vt 0.000000 1.000000
vt 0.283215 1.000000
vt 0.000000 1.000000
vt 0.308926 1.000000
vt 0.000000 1.000000
vt 0.343675 1.000000
vt 0.000000 1.000000
vt 0.392141 1.000000
vt 0.000000 1.000000
vt 0.792141 0.000000
vt 0.000000 1.000000
vt 0.943676 0.000000
vt 0.000000 1.000000
vt 0.992141 0.000000
vt 0.000000 1.000000
vt 0.000000 1.000000
vt 0.000000 1.000000
vt 0.000000 1.000000
vt 0.000000 1.000000
vt 0.000000 1.000000
vt 0.000000 1.000000
vt 0.708926 1.000000
vt 0.000000 1.000000
vt 0.000000 1.000000
vt 0.792141 1.000000
vt 0.000000 1.000000
vt 0.800000 1.000000
vt 0.000000 1.000000
vt 0.848466 1.000000
vt 0.000000 1.000000
vt 0.000000 1.000000
vt 0.908926 1.000000
vt 0.000000 1.000000
vt 0.000000 1.000000
vt 0.992141 1.000000
vt 0.000000 1.000000
vt 0.000000 0.000000
vt 1.000000 0.000000
vt 0.000000 1.000000
vt 0.048466 0.000000
vt 0.000000 1.000000
vt 0.000000 1.000000
vt 0.108926 0.000000
vt 0.000000 1.000000
vt 0.000000 1.000000
vt 0.192141 0.000000
vt 0.000000 1.000000
vt 0.000000 1.000000
vt 0.248466 0.000000
vt 0.000000 1.000000
vt 0.283215 0.000000
vt 0.000000 1.000000
vt 0.308926 0.000000
vt 0.000000 1.000000
vt 0.343675 0.000000
vt 0.000000 1.000000
vt 0.000000 1.000000
vt 0.400000 0.000000
vt 0.000000 1.000000
vt 0.448466 0.000000
vt 0.000000 1.000000
vt 0.483215 0.000000
vt 0.000000 1.000000
vt 0.543675 0.000000
vt 0.000000 1.000000
vt 0.600000 0.000000
vt 0.000000 1.000000
vt 0.592141 0.000000
vt 0.000000 1.000000
vt 0.648466 0.000000
vt 0.000000 1.000000
vt 0.800000 0.000000
vt 0.000000 1.000000
vt 0.683215 0.000000
vt 0.000000 1.000000
vt 0.708926 0.000000
vt 0.000000 1.000000
vt 0.743676 0.000000
vt 0.000000 1.000000
vt 0.000000 1.000000
vt 0.000000 1.000000
vt 0.848466 0.000000
vt 0.000000 1.000000
vt 0.883215 0.000000
vt 0.000000 1.000000
vt 0.908926 0.000000
vt 0.000000 1.000000
vt 0.000000 1.000000
vt 0.000000 1.000000
vt 0.000000 1.000000
vt 0.048466 1.000000
vt 0.000000 1.000000
vt 0.083215 1.000000
vt 0.000000 1.000000
vt 0.108926 1.000000
vt 0.000000 1.000000
vt 0.000000 1.000000
vt 0.000000 1.000000
vt 0.000000 1.000000
vt 0.000000 1.000000
vt 0.000000 1.000000
vt 0.000000 1.000000
vt 0.000000 1.000000
vt 0.000000 1.000000
vt 0.400000 1.000000
vt 0.000000 1.000000
vt 0.448466 1.000000
vt 0.000000 1.000000
vt 0.483215 1.000000
vt 0.000000 1.000000
vt 0.508926 1.000000
vt 0.000000 1.000000
vt 0.543675 1.000000
vt 0.000000 1.000000
vt 0.592141 1.000000
vt 0.000000 1.000000
vt 0.600000 1.000000
vt 0.000000 1.000000
vt 0.648466 1.000000
vt 0.000000 1.000000
vt 0.683215 1.000000
vt 0.000000 1.000000
vt 0.000000 1.000000
vt 0.743676 1.000000
vt 0.000000 1.000000
vt 0.000000 1.000000
vt 0.000000 1.000000
vt 0.000000 1.000000
vt 0.883215 1.000000
vt 0.000000 1.000000
vt 0.000000 1.000000
vt 0.943676 1.000000
vt 0.000000 1.000000
vt 0.000000 1.000000
vt 0.000000 1.000000
vt 0.000000 1.000000
vt 0.083215 0.000000
vt 0.000000 1.000000
vt 0.000000 1.000000
vt 0.143676 0.000000
vt 0.000000 1.000000
vt 0.000000 0.000000
vt 0.000000 1.000000
vt 0.000000 0.000000
vt 0.000000 1.000000
vt 1.000000 1.000000
vt 1.000000 0.000000
vt 0.000000 0.000000
vt 1.000000 0.000000
vt 1.000000 1.000000
vt 0.000000 1.000000
vt 1.000000 0.000000
vt 0.000000 0.000000
vt 1.000000 1.000000
vt 0.000000 1.000000
vt 1.000000 0.000000
vt 0.000000 0.000000
vt 1.000000 1.000000
vt 0.000000 0.000000
vt 0.000000 1.000000
vt 0.068662 0.068662
vt 0.000000 1.000000
vt 0.000000 0.000000
vt 0.931338 0.068662
vt 0.000000 0.000000
vt 0.000000 1.000000
vt 0.931338 0.931338
vt 0.000000 1.000000
vt 0.000000 0.000000
vt 0.000000 1.000000
vt 0.000000 0.000000
vt 0.068662 0.931338
vt 0.000000 0.000000
vt 0.000000 1.000000
vt 0.000000 0.000000
vt 0.000000 1.000000
vt 0.931338 0.931338
vt 0.000000 0.000000
vt 0.000000 1.000000
vt 0.000000 0.000000
vt 0.000000 1.000000
vt 0.068662 0.931338
vt 0.000000 0.000000
vt 0.000000 1.000000
vt 0.931338 0.508768
vt 0.000000 0.000000
vt 0.000000 1.000000
vt 0.068662 0.068662
vt 1.000000 1.000000
vt 1.000000 0.000000
vt 0.931338 0.068662
vt 1.000000 0.000000
vt 1.000000 1.000000
vt 0.931338 0.931338
vt 0.068662 0.931338
vt 1.000000 0.000000
vt 1.000000 1.000000
vt 0.068662 0.508768
vt 1.000000 1.000000
vt 1.000000 0.000000
vt 1.000000 0.000000
vt 0.931338 0.508768
vt 0.000000 0.000000
vt 0.000000 1.000000
vt 0.084817 0.915183
vt 0.000000 0.000000
vt 0.000000 1.000000
vt 1.000000 0.000000
vt 1.000000 1.000000
vt 0.000000 1.000000
vt 0.000000 0.000000
vt 0.084817 0.084817
vt 0.000000 0.000000
vt 0.000000 1.000000
vt 1.000000 0.000000
vt 1.000000 1.000000
vt 0.830180 0.169820
vt 1.000000 0.000000
vt 1.000000 1.000000
vt 0.831653 0.831653
vt 1.000000 0.000000
vt 1.000000 1.000000
vt 0.169820 0.169820
vt 1.000000 1.000000
vt 1.000000 0.000000
vt 0.168347 0.831653
vt 1.000000 0.000000
vt 1.000000 1.000000
vt 1.000000 1.000000
vt 1.000000 0.000000
vt 0.000000 1.000000
vt 0.000000 0.000000
vt 1.000000 0.000000
vt 1.000000 1.000000
vt 0.000000 0.000000
vt 0.000000 1.000000
vt 1.000000 0.000000
vt 1.000000 1.000000
vt 0.000000 0.000000
vt 0.000000 1.000000
vt 1.000000 0.000000
vt 1.000000 1.000000
vt 0.000000 0.000000
vt 0.000000 1.000000
vt 1.000000 0.000000
vt 1.000000 1.000000
vt 0.000000 0.000000
vt 0.000000 1.000000
vt 0.000000 1.000000
vt 1.000000 0.000000
vt 1.000000 1.000000
vt 0.000000 0.000000
vt 0.000000 0.000000
vt 1.000000 1.000000
vt 1.000000 0.000000
vt 0.000000 1.000000
vt 0.000000 0.000000
vt 0.000000 1.000000
vt 1.000000 0.000000
vt 1.000000 1.000000
vt 0.000000 0.000000
vt 0.000000 1.000000
vt 1.000000 0.000000
vt 1.000000 1.000000
vt 0.000000 0.000000
vt 0.000000 1.000000
vt 1.000000 0.000000
vt 1.000000 1.000000
vt 0.000000 1.000000
vt 0.000000 0.000000
vt 1.000000 1.000000
vt 1.000000 0.000000
vt 0.000000 0.000000
vt 0.000000 1.000000
vt 1.000000 0.000000
vt 1.000000 1.000000
vt 0.000000 0.000000
vt 0.000000 1.000000
vt 1.000000 0.000000
vt 1.000000 1.000000
vt 0.000000 0.000000
vt 0.000000 1.000000
vt 1.000000 0.000000
vt 1.000000 1.000000
vt 0.000000 1.000000
vt 0.000000 0.000000
vt 1.000000 1.000000
vt 1.000000 0.000000
vt 0.000000 0.000000
vt 0.000000 1.000000
vt 0.068662 0.910524
vt 0.000000 0.000000
vt 0.000000 1.000000
vt 1.000000 0.000000
vt 1.000000 1.000000
vt 0.000000 0.000000
vt 0.000000 1.000000
vt 0.068662 0.908385
vt 1.000000 1.000000
vt 1.000000 0.000000
vt 0.931338 0.110494
vt 1.000000 0.000000
vt 1.000000 1.000000
vt 0.931338 0.897904
vt 1.000000 0.000000
vt 1.000000 1.000000
vt 0.931338 0.117557
vt 1.000000 0.000000
vt 1.000000 1.000000
vt 0.931338 0.889829
vt 1.000000 0.000000
vt 1.000000 1.000000
vt 0.931338 0.514406
vt 1.000000 1.000000
vt 1.000000 0.000000
vt 0.068662 0.110494
vt 1.000000 0.000000
vt 1.000000 1.000000
vt 0.068662 0.897904
vt 1.000000 0.000000
vt 1.000000 1.000000
vt 0.068662 0.117557
vt 1.000000 0.000000
vt 1.000000 1.000000
vt 0.068662 0.889829
vt 1.000000 0.000000
vt 1.000000 1.000000
vt 0.068662 0.514406
vt 1.000000 1.000000
vt 1.000000 0.000000
vt 0.110357 0.068662
vt 1.000000 0.000000
vt 1.000000 1.000000
vt 0.889643 0.068662
vt 1.000000 0.000000
vt 1.000000 1.000000
vt 0.110357 0.068662
vt 1.000000 0.000000
vt 1.000000 1.000000
vt 0.889643 0.068662
vt 1.000000 1.000000
vt 1.000000 0.000000
vt 0.889643 0.931338
vt 1.000000 0.000000
vt 1.000000 1.000000
vt 0.110357 0.931338
vt 1.000000 0.000000
vt 1.000000 1.000000
vt 0.889643 0.931338
vt 1.000000 0.000000
vt 1.000000 1.000000
vt 0.110357 0.931338
s 1
usemtl ground
f 36/62/22 54/95/22 19/34/22 2/4/22
f 95/156/22 18/33/22 54/95/22 36/62/22
f 31/54/22 16/31/22 17/32/22 32/56/22
f 47/82/22 60/104/22 61/105/22 49/86/22
f 15/30/22 42/72/22 16/31/22 31/54/22
f 14/28/22 37/63/22 42/72/22 15/30/22
f 50/88/22 35/60/22 66/113/22 56/98/22
f 13/26/22 33/57/22 35/60/22 50/88/22
f 53/94/22 65/112/22 33/57/22 13/26/22
f 48/84/22 29/49/22 60/104/22 47/82/22
f 46/80/22 27/46/22 29/49/22 48/84/22
f 43/74/22 59/103/22 23/39/22 44/76/22
f 3/6/22 21/36/22 59/103/22 43/74/22
f 41/71/22 20/35/22 21/36/22 3/6/22
f 2/4/22 19/34/22 55/96/22 38/65/22
usemtl facade1
f 31/52/1 32/55/1 62/106/1 1/2/1
f 32/55/2 93/152/2 63/108/2 62/106/2
f 93/152/3 34/58/3 64/110/3 63/108/3
f 34/58/4 95/155/4 5/9/4 64/110/4
f 95/155/5 36/61/5 6/11/5 5/9/5
f 36/61/6 2/3/6 7/13/6 6/11/6
f 2/3/7 38/64/7 8/15/7 7/13/7
f 38/64/8 39/66/8 9/17/8 8/15/8
f 39/66/9 40/68/9 10/19/9 9/17/9
f 40/68/10 41/70/10 11/21/10 10/19/10
f 41/70/11 3/5/11 12/23/11 11/21/11
f 3/5/5 43/73/5 73/120/5 12/23/5
f 43/73/6 44/75/6 74/122/6 73/120/6
f 44/75/12 45/77/12 75/124/12 74/122/12
f 45/77/13 4/7/13 76/126/13 75/124/13
f 4/7/14 46/79/14 77/128/14 76/126/14
f 46/79/1 48/83/1 78/130/1 77/128/1
f 48/83/11 47/81/11 79/132/11 78/130/11
f 47/81/5 49/85/5 80/134/5 79/132/5
f 49/85/15 51/89/15 81/136/15 80/134/15
f 51/89/16 52/91/16 22/37/16 81/136/16
f 52/91/17 53/93/17 83/139/17 22/37/17
f 53/93/7 13/25/7 24/40/7 83/139/7
f 13/25/1 50/87/1 25/42/1 24/40/1
f 50/87/11 56/97/11 26/44/11 25/42/11
f 56/97/18 57/99/18 87/144/18 26/44/18
f 57/99/19 58/101/19 28/47/19 87/144/19
f 58/101/20 14/27/20 89/147/20 28/47/20
f 14/27/6 15/29/6 30/50/6 89/147/6
f 15/29/7 31/53/7 1/1/7 30/50/7
f 7/14/21 73/121/21 79/133/21 30/51/21
f 62/107/21 63/109/21 64/111/21 5/10/21
f 6/12/21 1/2/21 62/107/21 5/10/21
f 7/14/21 30/51/21 1/2/21 6/12/21
f 25/43/21 26/45/21 89/148/21 30/51/21
f 79/133/21 24/41/21 25/43/21 30/51/21
f 87/145/21 28/48/21 89/148/21 26/45/21
f 73/121/21 74/123/21 77/129/21 78/131/21
f 80/135/21 83/140/21 24/41/21 79/133/21
f 80/135/21 81/137/21 22/38/21 83/140/21
f 73/121/21 78/131/21 79/133/21
f 75/125/21 76/127/21 77/129/21 74/123/21
f 9/18/21 10/20/21 11/22/21 8/16/21
f 7/14/21 12/24/21 73/121/21
f 11/22/21 12/24/21 7/14/21 8/16/21
f 34/59/22 68/115/22 18/33/22 95/156/22
f 93/153/22 67/114/22 68/115/22 34/59/22
f 32/56/22 17/32/22 67/114/22 93/153/22
f 33/57/22 65/112/22 61/105/22 60/104/22
f 29/49/22 27/46/22 23/39/22 59/103/22
f 94/154/22 60/104/22 29/49/22
f 42/72/22 35/60/22 91/150/22 92/151/22
f 37/63/22 66/113/22 35/60/22 42/72/22
f 37/63/22 86/143/22 85/142/22 66/113/22
f 54/95/22 18/33/22 17/32/22 16/31/22
f 21/36/22 20/35/22 55/96/22 19/34/22
f 18/33/22 68/115/22 67/114/22 17/32/22
f 58/102/22 86/143/22 37/63/22 14/28/22
f 57/100/22 85/142/22 86/143/22 58/102/22
f 29/49/22 59/103/22 90/149/22 94/154/22
f 91/150/22 35/60/22 33/57/22
f 88/146/22 19/34/22 54/95/22
f 88/146/22 92/151/22 91/150/22
f 70/117/22 69/116/22 55/96/22 20/35/22
f 88/146/22 54/95/22 16/31/22 92/151/22
f 42/72/22 92/151/22 16/31/22
f 94/154/22 91/150/22 33/57/22 60/104/22
f 90/149/22 59/103/22 21/36/22
f 21/36/22 19/34/22 88/146/22 90/149/22
f 82/138/22 61/105/22 65/112/22 84/141/22
f 72/119/22 71/118/22 23/39/22 27/46/22
f 56/98/22 66/113/22 85/142/22 57/100/22
f 52/92/22 84/141/22 65/112/22 53/94/22
f 51/90/22 82/138/22 84/141/22 52/92/22
f 49/86/22 61/105/22 82/138/22 51/90/22
f 91/150/22 94/154/22 90/149/22 88/146/22
f 4/8/22 72/119/22 27/46/22 46/80/22
f 45/78/22 71/118/22 72/119/22 4/8/22
f 44/76/22 23/39/22 71/118/22 45/78/22
f 40/69/22 70/117/22 20/35/22 41/71/22
f 39/67/22 69/116/22 70/117/22 40/69/22
f 38/65/22 55/96/22 69/116/22 39/67/22
f 96/158/25 120/220/25 122/227/25 102/172/25
f 98/162/44 99/165/44 97/160/44 96/157/44
f 100/167/45 101/169/45 99/166/45 98/163/45
f 102/171/46 103/173/46 101/170/46 100/168/46
f 161/361/23 163/367/23 162/364/23 160/358/23
f 155/343/22 154/340/22 152/334/22
f 147/319/21 149/325/21 150/328/21
f 153/337/22 155/343/22 152/334/22 151/331/22
f 97/159/25 121/223/25 120/220/25 96/158/25
f 103/174/25 123/230/25 121/224/25 97/160/25
f 102/172/25 122/227/25 123/231/25 103/175/25
f 157/349/31 159/355/31 158/352/31 156/346/31
f 147/319/21 150/328/21 148/322/21 146/316/21
usemtl facade
f 135/272/23 153/335/23 151/329/23 133/264/23
f 137/280/24 155/341/24 153/336/24 135/273/24
f 136/276/24 154/338/24 155/342/24 137/281/24
f 124/232/25 125/235/25 127/241/25 126/238/25
f 115/206/26 119/217/26 118/213/26 114/203/26
f 100/167/24 98/161/24 96/158/24 102/172/24
f 99/164/27 105/179/27 104/176/27 97/159/27
f 101/169/28 106/182/28 105/179/28 99/164/28
f 103/175/29 107/187/29 106/182/29 101/169/29
f 97/159/30 104/176/30 107/187/30 103/175/30
f 134/268/31 152/332/31 154/339/31 136/277/31
f 139/288/32 157/347/32 156/344/32 138/284/32
f 141/296/22 159/353/22 157/348/22 139/289/22
f 140/292/24 158/350/24 159/354/24 141/297/24
f 138/285/21 156/345/21 158/351/21 140/293/21
f 143/304/32 161/359/32 160/356/32 142/300/32
f 119/217/33 116/209/33 117/210/33 118/213/33
f 109/190/34 115/207/34 114/204/34 108/189/34
f 113/201/35 119/216/35 115/208/35 109/191/35
f 108/188/36 114/205/36 118/214/36 112/199/36
f 110/192/37 116/209/37 119/217/37 113/200/37
f 111/195/38 117/211/38 116/209/38 110/192/38
f 112/198/39 118/215/39 117/212/39 111/196/39
f 145/311/21 163/365/21 161/360/21 143/305/21
f 144/307/24 162/362/24 163/366/24 145/312/24
f 142/301/22 160/357/22 162/363/22 144/308/22
f 120/218/40 124/233/40 126/239/40 122/225/40
f 121/221/41 125/236/41 124/234/41 120/219/41
f 123/228/42 127/242/42 125/237/42 121/222/42
f 122/226/43 126/240/43 127/243/43 123/229/43
f 106/184/21 129/248/21 128/244/21 105/181/21
f 110/193/21 131/256/21 129/249/21 106/183/21
f 113/201/21 132/260/21 131/257/21 110/194/21
f 109/190/21 130/252/21 132/261/21 113/202/21
f 105/180/21 128/245/21 130/253/21 109/191/21
f 104/178/22 133/265/22 134/269/22 107/185/22
f 108/188/22 135/274/22 133/266/22 104/177/22
f 112/198/22 137/282/22 135/275/22 108/189/22
f 111/195/22 136/278/22 137/283/22 112/199/22
f 107/186/22 134/270/22 136/279/22 111/196/22
f 105/180/31 139/290/31 138/286/31 104/177/31
f 109/190/31 141/298/31 139/291/31 105/181/31
f 108/188/31 140/294/31 141/299/31 109/191/31
f 104/178/31 138/287/31 140/295/31 108/189/31
f 107/187/23 143/306/23 142/302/23 106/183/23
f 111/197/23 145/313/23 143/306/23 107/187/23
f 110/193/23 144/309/23 145/313/23 111/197/23
f 106/184/23 142/303/23 144/310/23 110/194/23
f 129/250/32 147/317/32 146/314/32 128/246/32
f 131/258/31 149/323/31 147/318/31 129/251/31
f 132/262/24 150/326/24 149/324/24 131/259/24
f 130/254/24 148/320/24 150/327/24 132/263/24
f 128/247/23 146/315/23 148/321/23 130/255/23
f 133/267/32 151/330/32 152/333/32 134/271/32
